:SAMPLES-PER-SECOND 30
:FULLY-SPECIFIED
:DEGREES
863
root  -1.26387 39.6501 0.636786 3.66669 -86.1082 -5.04129
RightUpLeg  -3.4329 -9.78183 -4.73512
RightLeg  10.0167 5.88922 2.30926
RightFoot  -9.32274 -0.166773 5.76411
RightToes  4.6566e-010 0 -3.6325e-017
Spine  6.50786 -1.51335 6.09613
Spine1  6.82801 -0.765576 -1.40922
HEad  -7.2543 0.818054 -2.79628
LeftShoulder1  -0.28707 4.29482 -30.1449
LeftArm  -9.14061 16.2357 -35.6489
LeftForeArm  16.7579 -17.5079 -4.13171
LeftHand  -0.0448393 3.66981 1.69957
RightShoulder  -0.743043 -5.65072 27.9734
RightArm  9.05969 -11.0201 36.6593
RightForeArm  7.8317 5.38193 4.79328
RightHand  -0.203057 2.39045 -3.22616
LeftUpLeg  0.88698 3.54105 5.98478
LeftLeg  16.9324 -0.520097 0.25238
LeftFoot  -12.0197 0.0454797 -5.29762
LeftToes  -4.59298e-010 2.08438e-011 -1.27151e-011
864
root  -0.793746 39.7694 0.968589 2.0415 -85.6818 -2.71402
RightUpLeg  -3.9807 -9.97492 -5.35928
RightLeg  8.02356 5.5666 2.26099
RightFoot  -6.89148 -0.285054 6.14274
RightToes  4.6566e-010 0 -3.6325e-017
Spine  6.12062 -1.76511 4.32028
Spine1  6.42543 -1.34845 -1.00458
HEad  -8.92569 -1.9019 -0.739426
LeftShoulder1  -0.253837 4.20971 -29.829
LeftArm  -8.3008 16.2958 -35.9631
LeftForeArm  16.6294 -17.6584 -4.25221
LeftHand  -0.0309689 4.92791 1.3367
RightShoulder  -0.760249 -5.70793 27.8532
RightArm  9.24333 -10.8133 35.2659
RightForeArm  7.35344 6.34505 4.78667
RightHand  -0.189332 2.07597 -3.12076
LeftUpLeg  2.98986 4.39668 4.93105
LeftLeg  11.4007 -1.70836 0.702949
LeftFoot  -12.1755 0.0445694 -3.29544
LeftToes  -4.59298e-010 2.08438e-011 -1.27151e-011
865
root  -0.277406 39.9273 1.35969 -3.98734 -85.0752 4.27292
RightUpLeg  -4.61464 -10.4119 -6.4888
RightLeg  5.5654 5.41194 2.20085
RightFoot  -3.64792 -0.449162 6.29543
RightToes  4.6566e-010 0 -3.6325e-017
Spine  5.36839 -1.82987 1.99975
Spine1  6.53277 -1.84172 -0.169176
HEad  -11.1968 -4.16241 0.926529
LeftShoulder1  -0.226526 4.12864 -30.1083
LeftArm  -7.98205 15.1543 -36.7442
LeftForeArm  16.9003 -16.9237 -4.43943
LeftHand  -0.033728 4.60788 1.77695
RightShoulder  -0.717691 -5.61547 27.3292
RightArm  8.5658 -9.79221 34.9727
RightForeArm  7.56384 6.26753 4.54457
RightHand  -0.175602 1.78539 -2.98357
LeftUpLeg  3.59498 6.13789 3.26996
LeftLeg  6.1714 -2.73462 1.27786
LeftFoot  -10.2276 0.0696244 -0.872981
LeftToes  -4.59298e-010 2.08438e-011 -1.27151e-011
866
root  0.333185 40.018 1.80163 -12.2258 -84.8552 13.4103
RightUpLeg  -5.79407 -10.8473 -7.81578
RightLeg  3.86213 5.69824 1.9718
RightFoot  -0.923701 -0.629464 6.82407
RightToes  4.6566e-010 0 -3.6325e-017
Spine  5.8095 -1.71195 0.629036
Spine1  5.44887 -1.65431 -0.794427
HEad  -13.1583 -6.52541 2.63925
LeftShoulder1  -0.198871 4.05779 -29.7787
LeftArm  -7.39023 14.335 -37.9708
LeftForeArm  18.3979 -17.4562 -4.39521
LeftHand  -0.0232275 4.09285 0.0576386
RightShoulder  -0.696552 -5.55687 27.2552
RightArm  7.32284 -8.56902 35.3018
RightForeArm  7.06753 5.63316 4.16875
RightHand  -0.248744 2.21214 -3.99108
LeftUpLeg  2.47477 5.68242 1.33025
LeftLeg  4.4725 -1.88862 1.11935
LeftFoot  -8.07003 0.0371528 0.448048
LeftToes  -4.59298e-010 2.08438e-011 -1.27151e-011
867
root  1.04805 40.0332 2.28151 -18.392 -84.1937 20.3957
RightUpLeg  -7.13292 -11.5625 -9.21791
RightLeg  2.57334 5.82578 1.76532
RightFoot  1.41768 -0.842484 7.61365
RightToes  4.6566e-010 0 -3.6325e-017
Spine  6.59172 -1.75102 -0.324557
Spine1  4.68809 -1.53996 -1.553
HEad  -15.4179 -9.21617 4.74228
LeftShoulder1  -0.139871 3.89448 -29.5376
LeftArm  -6.42549 13.0434 -39.2369
LeftForeArm  18.9845 -18.3645 -4.32389
LeftHand  -0.0238246 4.41486 0.115567
RightShoulder  -0.721975 -5.61966 27.4616
RightArm  5.7755 -6.50492 36.2525
RightForeArm  6.70502 4.90058 3.70803
RightHand  -0.217637 1.94589 -3.61457
LeftUpLeg  0.353888 4.94316 -0.427422
LeftLeg  4.6013 -1.58801 0.622087
LeftFoot  -6.75336 -0.00783392 1.21896
LeftToes  -4.59298e-010 2.08438e-011 -1.27151e-011
868
root  1.82136 39.9792 2.83302 -24.9261 -83.99 27.2681
RightUpLeg  -8.22407 -12.6032 -10.7353
RightLeg  1.50795 6.84645 1.75617
RightFoot  3.36262 -1.1147 8.79148
RightToes  4.6566e-010 0 -3.6325e-017
Spine  7.99613 -1.67175 -0.448507
Spine1  4.14364 -1.10669 -3.10458
HEad  -18.512 -11.0163 6.30032
LeftShoulder1  -0.00601221 3.52192 -28.8574
LeftArm  -4.76638 12.1662 -40.7956
LeftForeArm  19.2963 -20.4214 -4.07284
LeftHand  -0.0163765 3.31671 -0.113169
RightShoulder  -0.628084 -5.38565 26.6614
RightArm  4.15474 -4.56845 38.6632
RightForeArm  5.55964 4.58565 3.33265
RightHand  -0.250747 2.37174 -3.95326
LeftUpLeg  -1.66482 4.41599 -2.03318
LeftLeg  5.56067 -0.882631 -0.0667374
LeftFoot  -5.91148 -0.0580763 1.97529
LeftToes  -4.59298e-010 2.08438e-011 -1.27151e-011
869
root  2.617 39.8655 3.38033 -34.3778 -84.9578 36.818
RightUpLeg  -9.25622 -12.979 -11.5073
RightLeg  0.0632291 8.41194 1.51947
RightFoot  5.02826 -1.5318 10.8459
RightToes  4.6566e-010 0 -3.6325e-017
Spine  9.52588 -1.1451 -0.512915
Spine1  3.91384 -0.269632 -4.38151
HEad  -21.9325 -12.1293 7.12111
LeftShoulder1  0.0702479 3.30362 -29.0085
LeftArm  -3.58905 11.1622 -41.7445
LeftForeArm  19.6213 -22.832 -3.98022
LeftHand  -0.0238896 3.33604 0.33389
RightShoulder  -0.525254 -5.11514 25.7863
RightArm  3.7845 -1.83182 40.9471
RightForeArm  4.87074 5.03798 3.43532
RightHand  -0.256738 2.21136 -4.0707
LeftUpLeg  -3.65338 4.80882 -2.80016
LeftLeg  7.1691 0.120175 -1.1398
LeftFoot  -5.7335 -0.117902 3.12686
LeftToes  -4.59298e-010 2.08438e-011 -1.27151e-011
